<?xml version="1.0" encoding="utf-8"?>
<!-- Generator: Adobe Illustrator 28.0.0, SVG Export Plug-In . SVG Version: 6.00 Build 0)  -->
<svg version="1.1" id="Layer_1" xmlns="http://www.w3.org/2000/svg" xmlns:xlink="http://www.w3.org/1999/xlink" x="0px" y="0px"
	 viewBox="0 0 186 100" style="enable-background:new 0 0 290 100;" xml:space="preserve">
<style type="text/css">
	.st0{clip-path:url(#SVGID_00000109717950243844582420000006102643681184117389_);fill:#010101;}
	.st1{clip-path:url(#SVGID_00000000224446148963424370000012856794645997092005_);fill:#E01F26;}
	.st2{clip-path:url(#SVGID_00000098195404194164794750000003798227658198985869_);fill:#F6D929;}
	.st3{fill-rule:evenodd;clip-rule:evenodd;fill:#010101;}
	.st4{fill:#010101;}
	.st5{fill:#F58025;}
	.st6{fill:#010101;}
</style>
<g>
	<g>
		<path class="st3" d="M72.1,60.1C70,60.1,69,62,69,63.8c0,2,1.2,3,2.6,3c1.9,0,3.1-1.5,3.1-3.6C74.7,61,73.5,60.1,72.1,60.1
			L72.1,60.1z"/>
		<g>
			<path class="st4" d="M59.2,42.9L59,43.4l0.9,0.1c0.4,0,0.5,0.2,0.4,0.9l-1.5,7c-0.1,0.9-0.4,1.5-0.5,2.1
				c-0.1,0.5-0.5,0.6-0.9,0.7h-0.5l-0.1,0.5h3.6l0.1-0.5h-0.6c-0.5,0-0.7-0.2-0.7-0.7c0-0.6,0.1-1.2,0.4-2.1l1.5-7l0,0
				c1.5,3.5,2.9,6.9,4.2,10.3h1l1.7-8.4c0.1-0.9,0.4-1.5,0.5-2.1c0.1-0.5,0.5-0.6,0.9-0.7h0.5L70,43h-3.6l-0.1,0.5l0.6,0.1
				c0.5,0.1,0.7,0.1,0.7,0.7c0,0.6-0.1,1.2-0.4,2.1L66,52.7l0,0c-1.4-3.2-2.6-6.4-4-9.6L59.2,42.9L59.2,42.9z"/>
			<path class="st4" d="M71.7,42.9l-0.1,0.5l0.9,0.1c0.4,0,0.5,0.2,0.4,0.9l-1.9,9c-0.1,0.6-0.2,0.7-0.6,0.9h-0.7l-0.1,0.5h8.1
				l0.7-3h-0.5c-0.7,2.1-1.5,2.4-3.4,2.4c-0.7,0-1.5,0-1.7-0.2s-0.2-0.5-0.1-1.2l0.7-3.7h2c1.4,0,1.4,0.4,1.4,1.5h0.5L78,47h-0.5
				c-0.4,1.1-0.6,1.5-1.9,1.5h-2l0.9-4.2c0.1-0.4,0.1-0.5,0.4-0.5h1.9c2,0,1.9,0.7,1.7,2.2H79l0.6-2.9L71.7,42.9L71.7,42.9z"/>
			<path class="st4" d="M80.8,42.9l-0.1,0.5l0.6,0.1c0.4,0,0.4,0.2,0.5,0.7l0.6,10.5h1.1l4.2-9.3h0.1l0.7,9.3h1.1l2.7-6.1
				c0.9-2,1.6-3.6,1.9-4.2c0.4-0.9,0.5-0.9,1.5-1l0.1-0.5h-3.5l-0.1,0.5l1,0.1c0.2,0,0.2,0.2,0.1,0.6c-0.2,0.6-0.9,2.1-1.7,4.2
				l-1.9,4.2l0,0L89,43.2h-1.1l-4.2,9.3h-0.1l-0.5-8.6c0-0.4,0.1-0.5,0.4-0.5l1-0.1l0.1-0.5L80.8,42.9L80.8,42.9z"/>
			<path class="st4" d="M101.3,42.9l-0.1,0.5l0.9,0.1c0.4,0,0.5,0.2,0.4,0.9l-1.9,9c-0.1,0.6-0.2,0.7-0.6,0.9h-1l-0.1,0.5h8.1l0.7-3
				h-0.5c-0.7,2.1-1.5,2.4-3.4,2.4c-0.7,0-1.5,0-1.7-0.2s-0.2-0.5-0.1-1.2l0.7-3.7h2c1.4,0,1.4,0.4,1.4,1.5h0.5l0.7-3.6h-0.5
				c-0.4,1.1-0.6,1.5-1.9,1.5h-2l0.9-4.2c0.1-0.4,0.1-0.5,0.4-0.5h1.9c2,0,1.9,0.7,1.7,2.2h0.5l0.6-2.9h-7.6V42.9z"/>
			<path class="st4" d="M111.1,42.9l-0.1,0.5l0.9,0.1c0.4,0,0.5,0.2,0.4,0.9l-1.5,7c-0.2,0.9-0.4,1.5-0.5,2.1
				c-0.1,0.5-0.5,0.6-0.9,0.7h-0.5l-0.1,0.5h3.6l0.1-0.5h-0.6c-0.5,0-0.7-0.2-0.7-0.7c0-0.6,0.1-1.2,0.4-2.1l1.5-7l0,0
				c1.5,3.5,2.9,6.9,4.2,10.3h1l1.7-8.4c0.2-0.9,0.4-1.5,0.5-2.1c0.1-0.5,0.5-0.6,0.9-0.7h0.5L122,43h-3.6l-0.1,0.5l0.6,0.1
				c0.5,0.1,0.7,0.1,0.7,0.7c0,0.6-0.1,1.2-0.4,2.1l-1.2,6.1h-0.1c-1.4-3.2-2.6-6.4-4-9.6H111.1L111.1,42.9z"/>
			<path class="st4" d="M131.8,43.6c-1-0.5-2.1-0.9-3.5-0.9c-2.4,0-4.1,0.9-5.1,2.5c-1,1.4-1.5,3.2-1.5,4.7c0,1.7,0.5,3.1,1.4,3.9
				c0.9,0.9,2.1,1.2,3.6,1.2c1.1,0,2.4-0.2,3.2-0.6l0.7-3.5c0.1-0.6,0.2-0.9,0.5-0.9l0.6-0.1l0.1-0.5h-4.1l-0.1,0.5l1.1,0.1
				c0.2,0,0.4,0.2,0.2,0.9l-0.6,2.6c-0.1,0.5-0.2,0.9-1.9,0.9c-1.9,0-3.2-1.4-3.2-4.4c0-2.7,1.2-6.7,4.9-6.7c2.2,0,2.5,1.5,2.5,2.9
				h0.5L131.8,43.6L131.8,43.6z"/>
			<path class="st4" d="M139.8,54.8l0.7-3H140c-0.7,2.1-1.5,2.4-3.2,2.4c-0.7,0-1.5,0-1.7-0.2s-0.2-0.5-0.1-1.2l1.9-8.4
				c0.1-0.6,0.2-0.9,0.6-0.9l0.9-0.1l0.1-0.5h-4.4l-0.1,0.5l0.9,0.1c0.4,0,0.5,0.2,0.4,0.9l-1.9,9c-0.1,0.6-0.2,0.7-0.6,0.9
				l-0.9,0.1l-0.1,0.5h8V54.8z"/>
			<path class="st3" d="M151.5,54.8l0.1-0.5H151c-0.5,0-0.5-0.2-0.6-1l-1.1-10.2h-1.1l-2.6,5c-0.7,1.5-2.1,4-2.6,5.1
				c-0.5,0.9-0.7,1.1-1.2,1.1l-0.5,0.1l-0.1,0.5h3.5l0.1-0.5l-0.9-0.1c-0.2,0-0.4-0.2-0.2-0.6c0.5-1.1,1-2.2,1.6-3.4h3.5l0.4,3.2
				c0,0.5-0.1,0.6-0.4,0.6l-0.9,0.1l-0.1,0.5L151.5,54.8L151.5,54.8z M148.5,49.5h-3c0.9-1.7,1.6-3.4,2.5-5l0,0L148.5,49.5
				L148.5,49.5z"/>
			<path class="st4" d="M154.5,42.9l-0.1,0.5l0.9,0.1c0.4,0,0.5,0.2,0.4,0.9l-1.5,7c-0.1,0.9-0.4,1.5-0.5,2.1
				c-0.1,0.5-0.5,0.6-0.9,0.7h-0.5l-0.1,0.5h3.6l0.1-0.5h-0.6c-0.5,0-0.7-0.2-0.7-0.7c0-0.6,0.1-1.2,0.4-2.1l1.5-7l0,0
				c1.5,3.5,2.9,6.9,4.2,10.3h1l1.7-8.4c0.1-0.9,0.4-1.5,0.5-2.1c0.2-0.5,0.5-0.6,0.9-0.7h0.5l0.1-0.5h-3.6l-0.1,0.5l0.6,0.1
				c0.5,0.1,0.7,0.1,0.7,0.7c0,0.6-0.1,1.2-0.4,2.1l-1.2,6.1l0,0c-1.4-3.2-2.6-6.4-4-9.6H154.5L154.5,42.9z"/>
			<path class="st3" d="M171,43.6c3.2,0.1,3.5,2.5,3.5,3.9c0,1.5-0.2,2.9-1,4.1c-0.9,1.6-2.2,2.6-4.7,2.6c-0.9,0-1.4-0.1-1.2-0.9
				l1.9-9.1C169.3,43.6,169.6,43.6,171,43.6L171,43.6z M164.4,54.8h4.7c3.1,0,4.9-1.2,6-3.1c0.9-1.5,1-2.9,1-3.9
				c0-1.4-0.5-2.7-1.4-3.6c-0.9-0.9-2.2-1.2-4-1.2h-4.1l-0.1,0.5l0.9,0.1c0.4,0,0.4,0.2,0.4,0.9l-1.9,9c-0.1,0.5-0.2,0.7-0.6,0.9
				l-0.9,0.1L164.4,54.8L164.4,54.8z"/>
		</g>
		<path class="st4" d="M35.6,99.4h14.1c11.2,0,13.3-7,13.3-11.7c0-6-3.6-8.6-7-9.3v-0.1c6.1-0.9,8.7-5.1,8.7-9.3c0-3-1-5.2-2.9-6.7
			c-2-1.5-5-1.9-8.4-1.9h-11L42.2,62l2.7,0.4c1.1,0.1,1.4,0.7,1,2.7l-5.5,29.8c-0.4,1.9-0.9,2.5-2,2.7l-2.6,0.1L35.6,99.4z
			 M49.4,79.2c4.6,0,8.6,1.6,8.6,8c0,5-2.5,10.1-8.7,10.1c-4.6,0-4.7-1.4-4.4-3.6l2.7-14.5H49.4z M47.9,77.3l2.5-13.1
			c0.4-1.7,0.5-2,3.6-2c3.9,0,6.1,2.4,6.1,6.4c0,2.9-1.1,5.1-2.7,6.7c-1.5,1.4-3.9,2.1-6.5,2.1L47.9,77.3
			C47.9,77.4,47.9,77.3,47.9,77.3z"/>
		<path class="st4" d="M90.9,72.7c-11,0-13.6,12.8-13.6,17.3c0,5.6,2.6,9.3,8.5,9.3c5,0,8.2-2.7,10.5-6.6c2.1-3.7,2.9-8.1,2.9-11
			C99.3,74.6,94.7,72.7,90.9,72.7 M90.9,74.5c2.9,0,3.9,2.2,3.9,5.5c0,3.7-2.4,17.6-8.7,17.6c-2.6,0-4.1-1.9-4.1-5.5
			C81.8,86.4,84.8,74.5,90.9,74.5"/>
		<path class="st4" d="M131.3,72.7l-0.4,1.1c-0.7-0.6-2.1-1.1-3.4-1.1c-11,0-16.2,13.6-16.2,20.4c0,3.1,1.2,6.1,4.5,6.1
			c5,0,9.2-6.5,12-11.7h0.1l-1.6,5.9c-1,3.7-0.5,5.9,2,5.9c3.5,0,6.1-3.5,7.7-7.5l-1.1-0.7c-0.9,1.9-2.9,5.5-4.1,5.5
			c-0.9,0-0.9-1.2-0.5-2.9l5-21.1L131.3,72.7L131.3,72.7L131.3,72.7z M130.5,75.6c-0.9,3.9-2.5,9-5,13.1c-2.6,4.4-5.4,7.9-7.6,7.9
			c-1.5,0-2-1.6-2-3.6c0-5.7,4.5-18.6,11.7-18.6C128.7,74.5,129.8,75,130.5,75.6"/>
		<path class="st4" d="M148.8,60.3l-8.6,1.2l-0.2,1.2l2.6,0.4c1.1,0.1,1.4,0.5,0.9,2.5l-7,33.8h1.5l1.7-3.6c0.9,2.1,3.2,3.6,5.9,3.6
			c5.5,0,9.3-4,11.6-8.6c2.4-4.6,3.1-9.2,3.1-11.5c0-3.9-1.5-6.5-5-6.5s-8.1,3.6-11.7,10.7h-0.1L148.8,60.3z M155.8,79.7
			c0,3.7-2.7,17.8-9.6,17.8c-2.4,0-3.7-1.9-3.7-4.5c0-2.5,1-6.1,2.5-9.1c2.1-4.1,5.6-8.6,8.5-8.6C155,75.4,155.8,76.7,155.8,79.7"/>
		<path class="st4" d="M170.2,72.7c-4.7,0-7.5,3.4-7.5,7.6c0,2.7,1.6,5.1,4.1,7.2c2,1.7,3.2,4,3.2,6.1c0,2.5-1.4,3.9-3.4,3.9
			c-1.7,0-3.4-1.6-4.1-4.4c-0.2-1-0.7-1.5-1.5-1.5c-1.4,0-2.4,1.4-2.4,2.7c0,2.2,2.5,5,7,5c5,0,8-3.6,8-7.9c0-2.9-1.1-5.1-4.2-8
			c-2.7-2.5-3.2-4.2-3.2-5.7c0-1.6,1.1-3.4,2.9-3.4c1.5,0,2.7,1.1,3.7,3.6c0.2,0.6,0.6,1,1.2,1c0.9,0,2.2-0.7,2.2-2.4
			C176.1,75.1,174.3,72.7,170.2,72.7"/>
		<path class="st4" d="M181.3,74c1.2,0,2.2,1,2.2,2.4s-1,2.4-2.2,2.4s-2.2-1-2.2-2.4S180.1,74,181.3,74 M181.3,79
			c1.5,0,2.7-1.2,2.7-2.7s-1.2-2.7-2.7-2.7s-2.7,1.2-2.7,2.7S179.8,79,181.3,79 M180.9,75.2c0-0.1,0-0.1,0.4-0.1
			c0.2,0,0.6,0.1,0.6,0.5s-0.2,0.6-0.6,0.6h-0.2v-1C181.1,75.2,180.9,75.2,180.9,75.2z M181.3,77.7L181.3,77.7l-0.2-0.1
			c-0.1,0-0.1-0.1-0.1-0.2v-0.9h0.2c0.2,0,0.4,0.1,0.5,0.2s0.1,0.5,0.2,0.7c0.1,0.2,0.2,0.4,0.5,0.4h0.4v-0.1
			c-0.1,0-0.2-0.1-0.2-0.1c-0.1-0.1-0.1-0.2-0.2-0.5c0-0.4-0.1-0.6-0.6-0.7l0,0c0.4-0.1,0.7-0.2,0.7-0.7c0-0.4-0.2-0.7-1-0.7h-1.4v0
			h0.2c0.1,0,0.1,0.1,0.1,0.2v2.1c0,0.1,0,0.2-0.1,0.2h-0.2v0.1C180.1,77.7,181.3,77.7,181.3,77.7z"/>
		<path class="st4" d="M104.2,96.7c-0.9,0-0.9-1.2-0.5-2.9l6.2-29.3l1-4.4l-8.6,1.2l-0.2,1.2l2.6,0.4c0.9,0.1,1.1,0.4,1.1,1.2
			l-6.4,30c-0.7,3-0.1,5.1,2.4,5.1c3.4,0,5.9-3.5,7.5-7.5l-1.1-0.7C107.4,92.9,105.4,96.7,104.2,96.7z"/>
		<path class="st4" d="M74.5,91.2c-0.9,1.7-2.9,5.5-4.2,5.5c-0.9,0-0.9-1.2-0.5-2.9l1.1-5.1l0,0L73.4,77l1-4.4l-8.6,1.2L65.6,75
			l2.7,0.4c0.9,0.1,1.1,0.4,1.1,1.2l-2.5,12l0,0l-1.1,5.6c-0.7,3-0.1,5.1,2.4,5.1c3.4,0,5.9-3.5,7.5-7.5L74.5,91.2z"/>
	</g>
	<path class="st6" d="M68,34.8c-0.7,0-1.5,0-1.9,0.2c-0.1,0-0.1,0.1-0.2,0.1c-4.4,0.1-12.1,1.5-17.8,8c-0.1,0.1-0.1,0.2-0.4,0.1
		c-0.1-0.1-0.4-0.1-0.5-0.2c-0.2-0.1-0.1-0.2-0.1-0.2c2.5-6.9,9-10.3,12.8-12c0.1,0,0.1,0,0.2,0c0.4,0,1,0,1.7-0.2
		c1.1-0.4,1.9-0.9,1.7-1.1c-0.1-0.2-1.1-0.2-2.2,0c-0.7,0.2-1.1,0.4-1.5,0.7c-0.1,0.1-0.2,0.1-0.4,0.2c-3.2,1.2-10.5,5-13.1,12.1
		c-0.1,0.2-0.2,0.4-0.5,0.4c-0.9,0-1.4,0.2-1.9,0.7c-1,1.2-1.9,3.4-2.2,4.1c-0.1,0.2-0.4,0.1-0.5-0.1c-0.5-5.2-3.6-33-16.1-45.1
		c-0.2-0.2-0.6-0.6-1-0.9c-1.4-1-3.2-1.4-4.9-0.9c-2,0.5-3.1,2.4-3.9,4.1c-1,2.2-1.9,4.6-2.6,7c-1.1,5-1.9,10-1.9,15
		c0,0.2,0,0.5,0,0.7c0.1,1.9,1,3.7,2.5,5.2c0,0,1.2,1.5,5.2,4.4c0.1,0.1,0,0.4-0.1,0.4c-1.7-0.5-3-0.7-3.7-0.7
		c-4.7-0.9-9.6,0.6-12.1,4.6c-2.5,3.7-2.2,8.5,0,12.3c0.1,0.2,0.2,0.6,0.1,0.9c-0.6,2.2,0.5,5,2.9,6.5c0.1,0.1,0.4,0.2,0.5,0.4
		c0.2,0.1,0.5,0.5,0.5,0.9c0.1,1.9,1.1,3.7,3,4.9c1,0.7,2.4,1,2.6,1.1c5.5,0.6,18.3-6.1,18.7-6.2c0.4-0.1,0.7,0.1,0.6,0.4
		c-0.5,0.6-1,1.1-1.5,1.6c-0.7,0.6-1.5,1.2-2.2,1.9c-1.4,1-2.7,1.7-4.2,2.5c-0.7,0.4-1.6,0.6-2.4,1c-0.4,0.1-0.7,0.4-1,0.6
		c-0.9,0.7-2.6,3.5-2.9,4.5c-0.1,0.4-0.2,1,0.1,1.4c0.7,0.6,3.7-1.2,8.4-4c1.9-1.1,3.9-2.2,5.6-3.6c2.5-1.9,4.5-4.4,6.1-7
		c0.4-0.6,1-1,1.5-1.5c1.5-1.6,2.9-3.1,3.7-5.1c0.7-1.7,1.1-3.5,1.2-5.2c0-0.2,0.2-0.5,0.6-0.4c0.7,0.2,1.9,0.6,2.7,0.7
		c0.9,0.2,2.4,0.6,2.9-0.4S49,45.2,48.2,44c-0.1-0.1-0.1-0.2,0-0.4c5.6-6.4,13.2-7.6,17.5-7.9c0.1,0,0.2,0,0.4,0.1
		c0.4,0.2,1,0.4,1.6,0.4c1.1,0.1,2.1-0.1,2.1-0.5C70,35.3,69.1,35,68,34.8z M29.5,12.2c0.5,0.6,4.2,5.4,2.2,5.6
		c-2.2,0.2-7.5-5.6-7.4-7.2C24.4,8.3,27.6,9.5,29.5,12.2z M20,4.4c0.4-0.5,0.9-0.6,1.2-0.6c0.6,0,1.2,0.5,1.6,0.9
		c0.5,0.5,0.9,1,1.1,1.6c0.4,0.6,0.4,1.4-0.1,1.9c-1,1.2-2.6,0.2-3.5-0.6C19.9,6.8,19.4,5.3,20,4.4z M18.1,13.8
		c-1-0.2-2.4-1.1-2.5-2.5c-0.1-0.9,0.7-2.4,1.6-2.2c1,0,1.9,0.9,2.4,1.6C20.5,11.8,20.1,14.4,18.1,13.8z M33,56.8
		c-0.5,0.6-1.1,1.4-3,2.4c-3.2,1.7-5.1,2.6-8.4,3.9c-2.1,0.7-4.1,1.5-6.4,2c-1.4,0.4-3.4,0.2-4.4-1.2s0.7-2.1,1.6-2.4
		c3.5-1,11.6-3,14.2-3.7s5-1.5,5.5-1.5C32.7,56,33.2,56.5,33,56.8z M34.2,50.8c-4.6-1.5-10.5-1.5-11.5-1.9c-0.9-0.4-0.1-1.1,0.2-1.6
		c0.6-0.7,1.2-1.9,3.1-1.7c1.9,0,5.2,1.6,7.4,2.6c2,1.1,2.7,1.6,3,2.1C36.6,50.8,35.8,51.4,34.2,50.8z"/>
	<g>
		<path class="st5" d="M23.5,14c0.7,0.5,1.4,1.2,2.1,1.9c0.7,0.7,1.5,1.4,2.1,2.1c0.4,0.5,0.9,1.1,0.9,1.7v2.4c0,0.2,0,0.6-0.2,0.9
			s-0.5,0-0.7-0.2c-0.6-0.5-1.4-1-2-1.5l-3.9-2.9c0,0-2-1.4-1.5-2.5c0.4-0.7,1.2-2.2,2.1-2.4C22.9,13.8,23.3,13.9,23.5,14z"/>
		<path class="st5" d="M28.1,27.1l1.2,3.2c0.1,0.4,0.4,1,0,1.1c-0.4,0.2-0.9-0.1-1.1-0.4c-1.2-0.7-2.5-1.6-3.7-2.4L17.3,24
			c0,0-3.6-2.2-3.5-3.7c0.1-1,0.7-2.9,2-2.9c0.5,0,1.1,0.2,1.6,0.5c1.4,0.9,2.7,2,4,3c1.5,1.1,3,2.2,4.4,3.4
			C26.7,25.2,27.9,26.1,28.1,27.1z"/>
		<path class="st5" d="M9.3,40c1.5-0.5,3.2-0.4,4.7,0c2.6,0.5,5.2,1.7,7.5,3.2c0.2,0.2,0.6,0.5,0.7,0.7c0.2,0.6-0.4,1.4-1,1.4
			c-0.4,0-10.2-2-12.3-2.6c-0.6-0.1-1.4-0.4-1.5-1C7.2,40.8,8.5,40.2,9.3,40z"/>
		<path class="st5" d="M4.9,51.2C4,50.5,4,48.8,4.4,48.1c0.4-1.1,1.1-1.9,2.2-2.2c1.2-0.4,2.4-0.4,3.5-0.1c2.5,0.4,9.1,1.4,9.7,1.7
			c0.6,0.4,0.6,1,0,1.4c-1.4,0.6-3.9,0.9-7.7,1.7C9.2,51,5.7,51.9,4.9,51.2z"/>
		<path class="st5" d="M8,58.6C7.9,58.6,7.9,58.6,8,58.6c-0.7-0.4-1.1-1.1-1.2-1.7C6.7,56.3,7,55.5,7.5,55s1.2-0.7,1.9-1
			c1.6-0.5,8.1-2.5,9.7-2.6c4-0.4,6.9,0,10.8,0.5c1.6,0.2,2.5,0.4,2.9,0.7c0.5,0.4-0.1,0.9-0.6,1c-6.2,1.9-12,3.1-18.3,4.6
			C11,59,9.7,59.4,8,58.6z"/>
		<path class="st5" d="M33.7,34.6C33,33,30.5,27,30.4,25.4c-0.1-0.6-0.2-2.6,0.9-2.6c2,0,2.9,2.9,3.5,4c1.2,3,1.9,6.1,2.6,9.2
			c0.4,1.6,1.6,5.9,0.9,6.1C37.3,42.3,34.8,36.7,33.7,34.6z"/>
		<path class="st5" d="M38.2,48.8c-1.4-1.1-2.5-2.4-4.5-4c-6-5-9.8-8-16.6-12.7c-1.2-0.9-2.5-1.7-2.7-3.1c-0.1-0.6,0-1,0.1-1.5
			c0.9-1.9,3-0.6,3-0.6L28,33.3c2.9,1.7,3.7,3.1,3.7,3.1s7.2,11,7.6,11.6C39.5,48.8,38.7,49.3,38.2,48.8z"/>
	</g>
</g>
</svg>
